<svg width="96" height="80" viewBox="0 0 96 80" fill="none" xmlns="http://www.w3.org/2000/svg">
<path d="M64.7118 43.9785C67.0559 44.6534 69.4 44.9959 71.6802 44.9959C75.2014 44.9959 78.1395 44.1912 80.4177 43.2058C78.2213 51.2465 72.9451 65.1206 62.4346 66.683C61.4612 66.8278 60.6635 67.5316 60.398 68.479L58.1008 76.6955C57.9071 77.3903 58.0219 78.1341 58.4183 78.7371C58.8146 79.3401 59.4515 79.7424 60.1654 79.8403C60.9411 79.9461 61.7318 80 62.5155 80C75.1315 80 87.6257 66.8318 92.8979 47.9769C95.9928 36.9152 96.9003 20.2847 89.2769 9.81702C85.011 3.95971 78.7874 0.831877 70.7787 0.519392C70.7458 0.518392 70.7138 0.517393 70.6809 0.517393C60.7993 0.517392 52.0369 7.17239 49.3713 16.6996C47.779 22.3952 48.4988 28.3683 51.3999 33.5228C54.2702 38.6194 58.9973 42.3343 64.7118 43.9785Z" fill="#FFF6E3"/>
<path d="M2.8569 33.5208C5.72713 38.6184 10.4543 42.3333 16.1688 43.9776C18.5129 44.6524 20.857 44.9949 23.1362 44.9949C26.6573 44.9949 29.5964 44.1902 31.8746 43.2048C29.6783 51.2455 24.4021 65.1196 13.8905 66.682C12.9172 66.8268 12.1205 67.5306 11.8539 68.4781L9.55675 76.6945C9.36307 77.3893 9.47788 78.1331 9.87422 78.7361C10.2696 79.3391 10.9065 79.7414 11.6213 79.8393C12.396 79.9451 13.1867 79.999 13.9714 79.999C26.5874 79.999 39.0816 66.8308 44.3549 47.976C47.4487 36.9142 48.3562 20.2837 40.7319 9.81404C36.467 3.95772 30.2424 0.828894 22.2347 0.517408C22.2017 0.516409 22.1698 0.515409 22.1358 0.515409C12.2553 0.515408 3.49185 7.17041 0.826284 16.6977C-0.764071 22.3932 -0.043277 28.3674 2.8569 33.5208Z" fill="#FFF6E3"/>
</svg>
